<svg id="SvgjsSvg1048" xmlns="http://www.w3.org/2000/svg" version="1.1" xmlns:xlink="http://www.w3.org/1999/xlink" xmlns:svgjs="http://svgjs.com/svgjs" width="54" height="54" viewBox="0 0 54 54"><title>compass</title><desc>Created with Avocode.</desc><defs id="SvgjsDefs1049"><clipPath id="SvgjsClipPath1058"><path id="SvgjsPath1057" d="M655 913L655 859L709 859L709 913ZM682 911C695.75 911 707 899.75 707 886C707 872.25 695.75 861 682 861C668.25 861 657 872.25 657 886C657 899.75 668.25 911 682 911ZM682 862.67C694.83 862.67 705.33 873.17 705.33 886C705.33 898.83 694.83 909.33 682 909.33C669.17 909.33 658.67 898.83 658.67 886C658.67 873.17 669.17 862.67 682 862.67Z " fill="#ffffff"></path></clipPath></defs><path id="SvgjsPath1050" d="M703.33 886.17C703.33 872.8299999999999 693.6700000000001 862 681.6700000000001 862C669.6700000000001 862 660.0000000000001 872.83 660.0000000000001 886.17C660.0000000000001 899.5 669.6700000000001 910.3299999999999 681.6700000000001 910.3299999999999C693.6700000000001 910.3299999999999 703.33 899.4999999999999 703.33 886.17 " fill="#a3d6bb" fill-opacity="1" transform="matrix(1,0,0,1,-655,-859)"></path><path id="SvgjsPath1051" d="M682 862C694 862 703.67 872.83 703.67 886.17C703.67 899.5 694 910.3299999999999 682 910.3299999999999C695.33 910.3299999999999 706.17 899.4999999999999 706.17 886.17C706.17 872.8299999999999 695.3299999999999 862 682 862 " fill="#fd9808" fill-opacity="1" transform="matrix(1,0,0,1,-655,-859)"></path><path id="SvgjsPath1052" d="M660.5 886.17C660.5 872.8299999999999 670.17 862 682.17 862C668.8299999999999 862 658 872.83 658 886.17C658 899.5 668.83 910.3299999999999 682.17 910.3299999999999C670.17 910.3299999999999 660.5 899.4999999999999 660.5 886.17 " fill="#ffffff" fill-opacity="1" transform="matrix(1,0,0,1,-655,-859)"></path><path id="SvgjsPath1053" d="M686.25 890.37L678 882.12L690.08 875.29C690.9200000000001 874.79 692 874.9599999999999 692.75 875.62L692.75 875.62C693.42 876.29 693.58 877.37 693.08 878.29Z " fill="#ffdd09" fill-opacity="1" transform="matrix(1,0,0,1,-655,-859)"></path><path id="SvgjsPath1054" d="M678.12 882L686.37 890.25L674.21 897.08C673.37 897.58 672.2900000000001 897.4200000000001 671.62 896.75L671.62 896.75C670.96 896.08 670.79 895 671.29 894.08Z " fill="#ffdd09" fill-opacity="1" transform="matrix(1,0,0,1,-655,-859)"></path><path id="SvgjsPath1055" d="M657 886C657 872.25 668.25 861 682 861C695.75 861 707 872.25 707 886C707 899.75 695.75 911 682 911C668.25 911 657 899.75 657 886ZM658.67 886C658.67 898.83 669.17 909.33 682 909.33C694.83 909.33 705.33 898.83 705.33 886C705.33 873.17 694.83 862.67 682 862.67C669.17 862.67 658.67 873.17 658.67 886Z " fill="#000000" fill-opacity="1" transform="matrix(1,0,0,1,-655,-859)"></path><path id="SvgjsPath1056" d="M657 886C657 872.25 668.25 861 682 861C695.75 861 707 872.25 707 886C707 899.75 695.75 911 682 911C668.25 911 657 899.75 657 886ZM658.67 886C658.67 898.83 669.17 909.33 682 909.33C694.83 909.33 705.33 898.83 705.33 886C705.33 873.17 694.83 862.67 682 862.67C669.17 862.67 658.67 873.17 658.67 886Z " fill-opacity="0" fill="#ffffff" stroke-dasharray="0" stroke-linejoin="miter" stroke-linecap="butt" stroke-opacity="1" stroke="#ffffff" stroke-miterlimit="50" stroke-width="4" clip-path="url(&quot;#SvgjsClipPath1058&quot;)" transform="matrix(1,0,0,1,-655,-859)"></path><path id="SvgjsPath1059" d="M681.83 867.67C681.33 867.67 681 867.3299999999999 681 866.8299999999999L681 861.8299999999999C681 861.3299999999999 681.33 860.9999999999999 681.83 860.9999999999999C682.33 860.9999999999999 682.6700000000001 861.3299999999999 682.6700000000001 861.8299999999999L682.6700000000001 866.8299999999999C682.6700000000001 867.3299999999999 682.33 867.67 681.83 867.67Z " fill="#000000" fill-opacity="1" transform="matrix(1,0,0,1,-655,-859)"></path><path id="SvgjsPath1060" d="M681.83 910.67C681.33 910.67 681 910.3299999999999 681 909.8299999999999L681 904.8299999999999C681 904.3299999999999 681.33 903.9999999999999 681.83 903.9999999999999C682.33 903.9999999999999 682.6700000000001 904.3299999999999 682.6700000000001 904.8299999999999L682.6700000000001 909.8299999999999C682.6700000000001 910.3299999999999 682.33 910.67 681.83 910.67Z " fill="#000000" fill-opacity="1" transform="matrix(1,0,0,1,-655,-859)"></path><path id="SvgjsPath1061" d="M705.83 886.67L700.83 886.67C700.33 886.67 700 886.3299999999999 700 885.8299999999999C700 885.3299999999999 700.33 884.9999999999999 700.83 884.9999999999999L705.83 884.9999999999999C706.33 884.9999999999999 706.6700000000001 885.3299999999999 706.6700000000001 885.8299999999999C706.6700000000001 886.3299999999999 706.33 886.67 705.83 886.67Z " fill="#000000" fill-opacity="1" transform="matrix(1,0,0,1,-655,-859)"></path><path id="SvgjsPath1062" d="M662.83 886.67L657.83 886.67C657.33 886.67 657 886.3299999999999 657 885.8299999999999C657 885.3299999999999 657.33 884.9999999999999 657.83 884.9999999999999L662.83 884.9999999999999C663.33 884.9999999999999 663.6700000000001 885.3299999999999 663.6700000000001 885.8299999999999C663.6700000000001 886.3299999999999 663.33 886.67 662.83 886.67Z " fill="#000000" fill-opacity="1" transform="matrix(1,0,0,1,-655,-859)"></path><path id="SvgjsPath1063" d="M685.5 890.82L677.25 882.57C677.08 882.4000000000001 677 882.1500000000001 677 881.9000000000001C677 881.6500000000001 677.17 881.4000000000001 677.42 881.32L689.5 874.4000000000001C690.67 873.7300000000001 692.17 873.9000000000001 693.17 874.9000000000001C694.17 875.9000000000001 694.3299999999999 877.32 693.67 878.57L686.8299999999999 890.6500000000001C686.67 890.9000000000001 686.4999999999999 891.07 686.2499999999999 891.07C686.0799999999999 890.98 686.0799999999999 891.07 686.0799999999999 891.07C685.8299999999999 891.07 685.67 890.98 685.4999999999999 890.82ZM685.83 888.82L692.1700000000001 877.6500000000001C692.5000000000001 877.1500000000001 692.33 876.4800000000001 691.9200000000001 875.9800000000001C691.5000000000001 875.5700000000002 690.83 875.4800000000001 690.2500000000001 875.7300000000001L679.1700000000001 882.1500000000001Z " fill="#000000" fill-opacity="1" transform="matrix(1,0,0,1,-655,-859)"></path><path id="SvgjsPath1064" d="M670.9 897.17C669.9 896.17 669.73 894.75 670.4 893.5L677.23 881.42C677.4 881.17 677.57 881 677.82 881C678.07 881 678.32 881.08 678.48 881.25L686.73 889.5C686.9 889.67 686.98 889.92 686.98 890.17C686.98 890.42 686.82 890.67 686.57 890.75L674.57 897.67C674.07 897.92 673.57 898.0799999999999 673.07 898.0799999999999C672.32 898.0799999999999 671.48 897.7499999999999 670.9000000000001 897.17ZM671.9 894.33C671.5699999999999 894.83 671.65 895.5 672.15 896C672.5699999999999 896.42 673.23 896.5 673.8199999999999 896.25L684.9799999999999 890L678.2299999999999 883.25Z " fill="#000000" fill-opacity="1" transform="matrix(1,0,0,1,-655,-859)"></path></svg>