<svg id="SvgjsSvg1020" xmlns="http://www.w3.org/2000/svg" version="1.1" xmlns:xlink="http://www.w3.org/1999/xlink" xmlns:svgjs="http://svgjs.com/svgjs" width="53" height="50" viewBox="0 0 53 50"><title>Group</title><desc>Created with Avocode.</desc><defs id="SvgjsDefs1021"><clipPath id="SvgjsClipPath1037"><path id="SvgjsPath1036" d="M420 1029L420 998L441 998L441 1029ZM430.17 1027.71C430.42 1027.71 430.75 1027.54 430.83000000000004 1027.38C430.92 1027.3000000000002 434.75000000000006 1021.4900000000001 437.25000000000006 1016.0900000000001C438.58000000000004 1013.3100000000002 439.33000000000004 1011.6800000000002 439.33000000000004 1008.7300000000001C439.33000000000004 1003.9100000000001 435.92 999.0000000000001 430.17 999.0000000000001C424.42 999.0000000000001 421 1003.9100000000001 421 1008.6500000000001C421 1011.6800000000001 421.83 1013.3100000000001 423.08 1016.0100000000001C425.58 1021.4100000000001 429.5 1027.22 429.5 1027.3000000000002C429.58 1027.5400000000002 429.92 1027.7100000000003 430.17 1027.7100000000003ZM430.17 1000.64C434.83000000000004 1000.64 437.67 1004.73 437.67 1008.73C437.67 1011.35 437 1012.74 435.75 1015.36C433.92 1019.28 431.42 1023.37 430.17 1025.34C429 1023.3699999999999 426.42 1019.28 424.58000000000004 1015.3599999999999C423.33000000000004 1012.7399999999999 422.67 1011.3499999999999 422.67 1008.7299999999999C422.67 1004.7299999999999 425.5 1000.6399999999999 430.17 1000.6399999999999Z " fill="#ffffff"></path></clipPath><clipPath id="SvgjsClipPath1042"><path id="SvgjsPath1041" d="M452 1045L452 1014L473 1014L473 1045ZM462.17 1043.71C462.42 1043.71 462.75 1043.54 462.83000000000004 1043.38C462.92 1043.3000000000002 466.75000000000006 1037.49 469.25000000000006 1032.0900000000001C470.58000000000004 1029.3100000000002 471.33000000000004 1027.68 471.33000000000004 1024.7300000000002C471.33000000000004 1019.9100000000002 467.92 1015.0000000000002 462.17 1015.0000000000002C456.42 1015.0000000000002 453 1019.9100000000002 453 1024.6500000000003C453 1027.6800000000003 453.83 1029.3100000000004 455.08 1032.0100000000002C457.58 1037.4100000000003 461.5 1043.2200000000003 461.5 1043.3000000000002C461.58 1043.5400000000002 461.92 1043.7100000000003 462.17 1043.7100000000003ZM462.17 1016.64C466.83000000000004 1016.64 469.67 1020.73 469.67 1024.73C469.67 1027.35 469 1028.74 467.75 1031.3600000000001C465.92 1035.2800000000002 463.42 1039.3700000000001 462.17 1041.3400000000001C461 1039.3700000000001 458.42 1035.2800000000002 456.58000000000004 1031.3600000000001C455.33000000000004 1028.7400000000002 454.67 1027.3500000000001 454.67 1024.73C454.67 1020.73 457.5 1016.64 462.17 1016.64Z " fill="#ffffff"></path></clipPath></defs><path id="SvgjsPath1022" d="M461.67 1047.64L460.83000000000004 1047.64C460.33000000000004 1047.64 460.00000000000006 1047.3100000000002 460.00000000000006 1046.8200000000002C460.00000000000006 1046.3300000000002 460.33000000000004 1046.0000000000002 460.83000000000004 1046.0000000000002L461.67 1046.0000000000002C462.17 1046.0000000000002 462.5 1046.3300000000002 462.5 1046.8200000000002C462.5 1047.3100000000002 462.17 1047.64 461.67 1047.64Z " fill="#ffdd09" fill-opacity="1" transform="matrix(1,0,0,1,-420,-998)"></path><path id="SvgjsPath1023" d="M456.67 1047.64C456.17 1047.64 455.83000000000004 1047.3100000000002 455.83000000000004 1046.8200000000002C455.83000000000004 1046.3300000000002 456.17 1046.0000000000002 456.67 1046.0000000000002L458.25 1046.0000000000002C458.75 1046.0000000000002 459.08 1046.3300000000002 459.08 1046.8200000000002C459.08 1047.3100000000002 458.66999999999996 1047.64 458.25 1047.64ZM453.42 1047.64C453.92 1047.64 454.25 1047.3100000000002 454.25 1046.8200000000002C454.25 1046.3300000000002 453.92 1046.0000000000002 453.42 1046.0000000000002L451.83000000000004 1046.0000000000002C451.33000000000004 1046.0000000000002 451.00000000000006 1046.3300000000002 451.00000000000006 1046.8200000000002C451.00000000000006 1047.3100000000002 451.33000000000004 1047.64 451.83000000000004 1047.64Z " fill="#ffdd09" fill-opacity="1" transform="matrix(1,0,0,1,-420,-998)"></path><path id="SvgjsPath1024" d="M424.1 1047.09C423.6 1046.77 423.1 1046.36 422.76000000000005 1045.79C422.51000000000005 1045.3799999999999 422.6 1044.8899999999999 423.01000000000005 1044.6399999999999C423.43000000000006 1044.3899999999999 423.93000000000006 1044.4799999999998 424.18000000000006 1044.8899999999999C424.43000000000006 1045.29 424.68000000000006 1045.54 425.01000000000005 1045.79C425.43000000000006 1046.03 425.51000000000005 1046.52 425.26000000000005 1046.93C425.1 1047.18 424.85 1047.26 424.6 1047.26C424.43 1047.26 424.26000000000005 1047.18 424.1 1047.09ZM444.01 1033.27C443.76 1032.94 443.51 1032.62 443.18 1032.29C442.85 1032.04 442.76 1031.47 443.01 1031.1399999999999C443.26 1030.82 443.84999999999997 1030.7399999999998 444.18 1030.9799999999998C444.68 1031.3899999999999 445.1 1031.8799999999999 445.43 1032.37C445.68 1032.78 445.51 1033.27 445.1 1033.52C445.01000000000005 1033.68 444.85 1033.68 444.76000000000005 1033.68C444.51000000000005 1033.68 444.18000000000006 1033.52 444.01000000000005 1033.27ZM443.93 1037.93C443.6 1037.69 443.51 1037.1200000000001 443.76 1036.79C444.01 1036.46 444.18 1036.05 444.26 1035.6399999999999C444.34999999999997 1035.2299999999998 444.84999999999997 1034.9099999999999 445.26 1035.07C445.68 1035.1499999999999 446.01 1035.6399999999999 445.84999999999997 1036.05C445.67999999999995 1036.62 445.42999999999995 1037.2 445.01 1037.77C445.01 1038.02 444.68 1038.1 444.43 1038.1C444.26 1038.1 444.1 1038.02 443.93 1037.9299999999998ZM422.68 1043.17C422.26 1043.0900000000001 421.93 1042.68 422.01 1042.27C422.09999999999997 1041.61 422.34999999999997 1041.04 422.68 1040.55C422.93 1040.1399999999999 423.43 1040.06 423.85 1040.31C424.26000000000005 1040.55 424.35 1041.04 424.1 1041.45C423.85 1041.78 423.68 1042.19 423.68 1042.6000000000001C423.6 1042.92 423.26 1043.17 422.85 1043.17C422.76000000000005 1043.17 422.76000000000005 1043.17 422.68 1043.17ZM425.1 1039.32C425.01000000000005 1038.9099999999999 425.26000000000005 1038.4199999999998 425.68 1038.34C426.1 1038.26 426.51 1038.1799999999998 426.93 1038.1799999999998L427.51 1038.1799999999998C428.01 1038.1799999999998 428.34999999999997 1038.5099999999998 428.34999999999997 1038.9999999999998C428.34999999999997 1039.4899999999998 428.01 1039.8099999999997 427.51 1039.8099999999997L426.93 1039.8099999999997C426.68 1039.8099999999997 426.35 1039.8099999999997 426.1 1039.8999999999996C426.01000000000005 1039.8999999999996 425.93 1039.9799999999996 425.93 1039.9799999999996C425.6 1039.9799999999996 425.18 1039.7299999999996 425.1 1039.3199999999995ZM440.26 1039.81C439.76 1039.81 439.43 1039.49 439.43 1039C439.43 1038.51 439.76 1038.18 440.26 1038.18L441.09999999999997 1038.18C441.26 1038.18 441.51 1038.18 441.67999999999995 1038.1000000000001C442.09999999999997 1038.0200000000002 442.59999999999997 1038.3400000000001 442.67999999999995 1038.7500000000002C442.75999999999993 1039.1600000000003 442.42999999999995 1039.6500000000003 442.00999999999993 1039.7300000000002C441.67999999999995 1039.8100000000002 441.42999999999995 1039.8100000000002 441.0999999999999 1039.8100000000002ZM441.93 1047.99C441.43 1047.99 441.1 1047.67 441.1 1047.18C441.1 1046.69 441.43 1046.3600000000001 441.93 1046.3600000000001L443.6 1046.3600000000001C444.1 1046.3600000000001 444.43 1046.69 444.43 1047.18C444.43 1047.67 444.01 1047.99 443.6 1047.99ZM439.1 1031.64C438.6 1031.64 438.26000000000005 1031.3100000000002 438.26000000000005 1030.8200000000002C438.26000000000005 1030.3300000000002 438.6 1030.0000000000002 439.1 1030.0000000000002L440.68 1030.0000000000002C441.18 1030.0000000000002 441.51 1030.3300000000002 441.51 1030.8200000000002C441.51 1031.3100000000002 441.18 1031.64 440.68 1031.64ZM427.6 1047.99C427.1 1047.99 426.76000000000005 1047.67 426.76000000000005 1047.18C426.76000000000005 1046.69 427.1 1046.3600000000001 427.6 1046.3600000000001L429.18 1046.3600000000001C429.68 1046.3600000000001 430.01 1046.69 430.01 1047.18C430.01 1047.67 429.68 1047.99 429.18 1047.99ZM437.18 1047.99C436.68 1047.99 436.35 1047.67 436.35 1047.18C436.35 1046.69 436.68 1046.3600000000001 437.18 1046.3600000000001L438.76 1046.3600000000001C439.26 1046.3600000000001 439.59999999999997 1046.69 439.59999999999997 1047.18C439.59999999999997 1047.67 439.26 1047.99 438.76 1047.99ZM432.43 1047.99C431.93 1047.99 431.6 1047.67 431.6 1047.18C431.6 1046.69 431.93 1046.3600000000001 432.43 1046.3600000000001L434.01 1046.3600000000001C434.51 1046.3600000000001 434.84999999999997 1046.69 434.84999999999997 1047.18C434.84999999999997 1047.67 434.42999999999995 1047.99 434.01 1047.99ZM446.76 1047.99C446.26 1047.99 445.93 1047.67 445.93 1047.18C445.93 1046.69 446.26 1046.3600000000001 446.76 1046.3600000000001L448.34999999999997 1046.3600000000001C448.84999999999997 1046.3600000000001 449.17999999999995 1046.69 449.17999999999995 1047.18C449.17999999999995 1047.67 448.84999999999997 1047.99 448.34999999999997 1047.99ZM435.43 1039.81C434.93 1039.81 434.6 1039.49 434.6 1039C434.6 1038.51 434.93 1038.18 435.43 1038.18L437.01 1038.18C437.51 1038.18 437.84999999999997 1038.51 437.84999999999997 1039C437.84999999999997 1039.49 437.51 1039.81 437.01 1039.81ZM430.68 1039.81C430.18 1039.81 429.85 1039.49 429.85 1039C429.85 1038.51 430.18 1038.18 430.68 1038.18L432.26 1038.18C432.76 1038.18 433.09999999999997 1038.51 433.09999999999997 1039C433.09999999999997 1039.49 432.76 1039.81 432.26 1039.81ZM435.93 1031.64C436.43 1031.64 436.76 1031.3100000000002 436.76 1030.8200000000002C436.76 1030.3300000000002 436.43 1030.0000000000002 435.93 1030.0000000000002L434.35 1030.0000000000002C433.85 1030.0000000000002 433.51000000000005 1030.3300000000002 433.51000000000005 1030.8200000000002C433.51000000000005 1031.3100000000002 433.85 1031.64 434.35 1031.64Z " fill="#ffdd09" fill-opacity="1" transform="matrix(1,0,0,1,-420,-998)"></path><path id="SvgjsPath1025" d="M430.67 1031.64L429.83000000000004 1031.64C429.33000000000004 1031.64 429.00000000000006 1031.3100000000002 429.00000000000006 1030.8200000000002C429.00000000000006 1030.3300000000002 429.33000000000004 1030.0000000000002 429.83000000000004 1030.0000000000002L430.67 1030.0000000000002C431.17 1030.0000000000002 431.5 1030.3300000000002 431.5 1030.8200000000002C431.5 1031.3100000000002 431.17 1031.64 430.67 1031.64Z " fill="#ffdd09" fill-opacity="1" transform="matrix(1,0,0,1,-420,-998)"></path><path id="SvgjsPath1026" d="M429.83 1000C426.33 1000 424 1004.25 424 1008.92C424 1011.6999999999999 424.5 1013.25 425.42 1015.87C427.17 1021.27 429.83000000000004 1027.07 429.83000000000004 1027.07C429.83000000000004 1027.07 432.50000000000006 1021.27 434.25000000000006 1015.8699999999999C435.1700000000001 1013.1699999999998 435.6700000000001 1011.6999999999999 435.6700000000001 1008.9199999999998C435.6700000000001 1004.2499999999999 433.3300000000001 999.9999999999999 429.8300000000001 999.9999999999999 " fill="#a3d6bb" fill-opacity="1" transform="matrix(1,0,0,1,-420,-998)"></path><path id="SvgjsPath1027" d="M430 1000C433.5 1000 435.83 1004.25 435.83 1008.92C435.83 1011.6999999999999 435.33 1013.25 434.41999999999996 1015.87C432.66999999999996 1021.27 429.99999999999994 1027.07 429.99999999999994 1027.07C429.99999999999994 1027.07 433.8299999999999 1021.27 436.3299999999999 1015.8699999999999C437.5799999999999 1013.1699999999998 438.3299999999999 1011.6999999999999 438.3299999999999 1008.9199999999998C438.3299999999999 1004.2499999999999 434.99999999999994 999.9999999999999 429.99999999999994 999.9999999999999 " fill="#2d9f5e" fill-opacity="1" transform="matrix(1,0,0,1,-420,-998)"></path><path id="SvgjsPath1028" d="M424.5 1008.92C424.5 1004.25 426.83 1000 430.33 1000C425.33 1000 422 1004.25 422 1008.92C422 1011.6999999999999 422.75 1013.25 424 1015.87C426.5 1021.27 430.33 1027.07 430.33 1027.07C430.33 1027.07 427.66999999999996 1021.27 425.91999999999996 1015.8699999999999C424.99999999999994 1013.1699999999998 424.49999999999994 1011.6999999999999 424.49999999999994 1008.9199999999998 " fill="#ffffff" fill-opacity="1" transform="matrix(1,0,0,1,-420,-998)"></path><path id="SvgjsPath1029" d="M434.33 1008.09C434.33 1005.8000000000001 432.5 1004 430.16999999999996 1004C427.83 1004 425.99999999999994 1005.8 425.99999999999994 1008.09C425.99999999999994 1010.38 427.8299999999999 1012.1800000000001 430.16999999999996 1012.1800000000001C432.49999999999994 1012.1800000000001 434.33 1010.3800000000001 434.33 1008.09 " fill="#ffdd09" fill-opacity="1" transform="matrix(1,0,0,1,-420,-998)"></path><path id="SvgjsPath1030" d="M461.83 1016C458.33 1016 456 1020.25 456 1024.92C456 1027.7 456.5 1029.25 457.42 1031.8700000000001C459.17 1037.2700000000002 461.83000000000004 1043.0700000000002 461.83000000000004 1043.0700000000002C461.83000000000004 1043.0700000000002 464.50000000000006 1037.2700000000002 466.25000000000006 1031.8700000000001C467.1700000000001 1029.17 467.6700000000001 1027.7 467.6700000000001 1024.92C467.6700000000001 1020.33 465.3300000000001 1016.0000000000001 461.8300000000001 1016.0000000000001 " fill="#a3d6bb" fill-opacity="1" transform="matrix(1,0,0,1,-420,-998)"></path><path id="SvgjsPath1031" d="M462 1016C465.5 1016 467.83 1020.25 467.83 1024.92C467.83 1027.7 467.33 1029.25 466.41999999999996 1031.8700000000001C464.66999999999996 1037.2700000000002 461.99999999999994 1043.0700000000002 461.99999999999994 1043.0700000000002C461.99999999999994 1043.0700000000002 465.8299999999999 1037.2700000000002 468.3299999999999 1031.8700000000001C469.5799999999999 1029.17 470.3299999999999 1027.7 470.3299999999999 1024.92C470.3299999999999 1020.33 466.99999999999994 1016.0000000000001 461.99999999999994 1016.0000000000001 " fill="#2d9f5e" fill-opacity="1" transform="matrix(1,0,0,1,-420,-998)"></path><path id="SvgjsPath1032" d="M456.5 1024.92C456.5 1020.2500000000001 458.83 1016.0000000000001 462.33 1016.0000000000001C457.33 1016.0000000000001 454 1020.2500000000001 454 1024.92C454 1027.7 454.75 1029.25 456 1031.8700000000001C458.5 1037.2700000000002 462.33 1043.0700000000002 462.33 1043.0700000000002C462.33 1043.0700000000002 459.66999999999996 1037.2700000000002 457.91999999999996 1031.8700000000001C456.99999999999994 1029.2500000000002 456.49999999999994 1027.7 456.49999999999994 1024.92 " fill="#ffffff" fill-opacity="1" transform="matrix(1,0,0,1,-420,-998)"></path><path id="SvgjsPath1033" d="M466.33 1024.09C466.33 1021.8 464.5 1019.9999999999999 462.16999999999996 1019.9999999999999C459.83 1019.9999999999999 457.99999999999994 1021.7999999999998 457.99999999999994 1024.09C457.99999999999994 1026.3799999999999 459.8299999999999 1028.1799999999998 462.16999999999996 1028.1799999999998C464.49999999999994 1028.1799999999998 466.33 1026.3799999999999 466.33 1024.09 " fill="#ffdd09" fill-opacity="1" transform="matrix(1,0,0,1,-420,-998)"></path><path id="SvgjsPath1034" d="M429.5 1027.3C429.5 1027.22 425.58 1021.41 423.08 1016.01C421.83 1013.31 421 1011.68 421 1008.65C421 1003.91 424.42 999 430.17 999C435.92 999 439.33000000000004 1003.91 439.33000000000004 1008.73C439.33000000000004 1011.6800000000001 438.58000000000004 1013.3100000000001 437.25000000000006 1016.09C434.75000000000006 1021.49 430.9200000000001 1027.3 430.83000000000004 1027.38C430.75000000000006 1027.5400000000002 430.42 1027.71 430.17 1027.71C429.92 1027.71 429.58000000000004 1027.54 429.5 1027.3ZM422.67 1008.73C422.67 1011.35 423.33000000000004 1012.74 424.58000000000004 1015.36C426.42 1019.28 429.00000000000006 1023.37 430.17 1025.34C431.42 1023.3699999999999 433.92 1019.28 435.75 1015.3599999999999C437 1012.7399999999999 437.67 1011.3499999999999 437.67 1008.7299999999999C437.67 1004.7299999999999 434.83000000000004 1000.6399999999999 430.17 1000.6399999999999C425.5 1000.6399999999999 422.67 1004.7299999999999 422.67 1008.7299999999999Z " fill="#000000" fill-opacity="1" transform="matrix(1,0,0,1,-420,-998)"></path><path id="SvgjsPath1035" d="M429.5 1027.3C429.5 1027.22 425.58 1021.41 423.08 1016.01C421.83 1013.31 421 1011.68 421 1008.65C421 1003.91 424.42 999 430.17 999C435.92 999 439.33000000000004 1003.91 439.33000000000004 1008.73C439.33000000000004 1011.6800000000001 438.58000000000004 1013.3100000000001 437.25000000000006 1016.09C434.75000000000006 1021.49 430.9200000000001 1027.3 430.83000000000004 1027.38C430.75000000000006 1027.5400000000002 430.42 1027.71 430.17 1027.71C429.92 1027.71 429.58000000000004 1027.54 429.5 1027.3ZM422.67 1008.73C422.67 1011.35 423.33000000000004 1012.74 424.58000000000004 1015.36C426.42 1019.28 429.00000000000006 1023.37 430.17 1025.34C431.42 1023.3699999999999 433.92 1019.28 435.75 1015.3599999999999C437 1012.7399999999999 437.67 1011.3499999999999 437.67 1008.7299999999999C437.67 1004.7299999999999 434.83000000000004 1000.6399999999999 430.17 1000.6399999999999C425.5 1000.6399999999999 422.67 1004.7299999999999 422.67 1008.7299999999999Z " fill-opacity="0" fill="#ffffff" stroke-dasharray="0" stroke-linejoin="miter" stroke-linecap="butt" stroke-opacity="1" stroke="#ffffff" stroke-miterlimit="50" stroke-width="2" clip-path="url(&quot;#SvgjsClipPath1037&quot;)" transform="matrix(1,0,0,1,-420,-998)"></path><path id="SvgjsPath1038" d="M425 1007.91C425 1005.2099999999999 427.25 1003 430 1003C432.75 1003 435 1005.21 435 1007.91C435 1010.61 432.75 1012.81 430 1012.81C427.25 1012.81 425 1010.6099999999999 425 1007.91ZM426.67 1007.91C426.67 1009.7099999999999 428.17 1011.18 430 1011.18C431.83 1011.18 433.33 1009.7099999999999 433.33 1007.91C433.33 1006.11 431.83 1004.64 430 1004.64C428.17 1004.64 426.67 1006.11 426.67 1007.91Z " fill="#000000" fill-opacity="1" transform="matrix(1,0,0,1,-420,-998)"></path><path id="SvgjsPath1039" d="M461.5 1043.3C461.5 1043.22 457.58 1037.4099999999999 455.08 1032.01C453.83 1029.31 453 1027.68 453 1024.65C453 1019.9100000000001 456.42 1015.0000000000001 462.17 1015.0000000000001C467.92 1015.0000000000001 471.33000000000004 1019.9100000000001 471.33000000000004 1024.73C471.33000000000004 1027.68 470.58000000000004 1029.31 469.25000000000006 1032.09C466.75000000000006 1037.49 462.9200000000001 1043.3 462.83000000000004 1043.3799999999999C462.75000000000006 1043.54 462.42 1043.7099999999998 462.17 1043.7099999999998C461.92 1043.7099999999998 461.58000000000004 1043.5399999999997 461.5 1043.2999999999997ZM454.67 1024.73C454.67 1027.35 455.33000000000004 1028.74 456.58000000000004 1031.3600000000001C458.42 1035.2800000000002 461.00000000000006 1039.3700000000001 462.17 1041.3400000000001C463.42 1039.3700000000001 465.92 1035.2800000000002 467.75 1031.3600000000001C469 1028.7400000000002 469.67 1027.3500000000001 469.67 1024.73C469.67 1020.73 466.83000000000004 1016.64 462.17 1016.64C457.5 1016.64 454.67 1020.73 454.67 1024.73Z " fill="#000000" fill-opacity="1" transform="matrix(1,0,0,1,-420,-998)"></path><path id="SvgjsPath1040" d="M461.5 1043.3C461.5 1043.22 457.58 1037.4099999999999 455.08 1032.01C453.83 1029.31 453 1027.68 453 1024.65C453 1019.9100000000001 456.42 1015.0000000000001 462.17 1015.0000000000001C467.92 1015.0000000000001 471.33000000000004 1019.9100000000001 471.33000000000004 1024.73C471.33000000000004 1027.68 470.58000000000004 1029.31 469.25000000000006 1032.09C466.75000000000006 1037.49 462.9200000000001 1043.3 462.83000000000004 1043.3799999999999C462.75000000000006 1043.54 462.42 1043.7099999999998 462.17 1043.7099999999998C461.92 1043.7099999999998 461.58000000000004 1043.5399999999997 461.5 1043.2999999999997ZM454.67 1024.73C454.67 1027.35 455.33000000000004 1028.74 456.58000000000004 1031.3600000000001C458.42 1035.2800000000002 461.00000000000006 1039.3700000000001 462.17 1041.3400000000001C463.42 1039.3700000000001 465.92 1035.2800000000002 467.75 1031.3600000000001C469 1028.7400000000002 469.67 1027.3500000000001 469.67 1024.73C469.67 1020.73 466.83000000000004 1016.64 462.17 1016.64C457.5 1016.64 454.67 1020.73 454.67 1024.73Z " fill-opacity="0" fill="#ffffff" stroke-dasharray="0" stroke-linejoin="miter" stroke-linecap="butt" stroke-opacity="1" stroke="#ffffff" stroke-miterlimit="50" stroke-width="2" clip-path="url(&quot;#SvgjsClipPath1042&quot;)" transform="matrix(1,0,0,1,-420,-998)"></path><path id="SvgjsPath1043" d="M457 1023.91C457 1021.2099999999999 459.25 1019 462 1019C464.75 1019 467 1021.21 467 1023.91C467 1026.61 464.75 1028.81 462 1028.81C459.25 1028.81 457 1026.61 457 1023.91ZM458.67 1023.91C458.67 1025.71 460.17 1027.18 462 1027.18C463.83 1027.18 465.33 1025.71 465.33 1023.9100000000001C465.33 1022.1100000000001 463.83 1020.6400000000001 462 1020.6400000000001C460.17 1020.6400000000001 458.67 1022.1100000000001 458.67 1023.9100000000001Z " fill="#000000" fill-opacity="1" transform="matrix(1,0,0,1,-420,-998)"></path><path id="SvgjsPath1044" d="M461.67 1047.64L460.83000000000004 1047.64C460.33000000000004 1047.64 460.00000000000006 1047.3100000000002 460.00000000000006 1046.8200000000002C460.00000000000006 1046.3300000000002 460.33000000000004 1046.0000000000002 460.83000000000004 1046.0000000000002L461.67 1046.0000000000002C462.17 1046.0000000000002 462.5 1046.3300000000002 462.5 1046.8200000000002C462.5 1047.3100000000002 462.17 1047.64 461.67 1047.64Z " fill="#000000" fill-opacity="1" transform="matrix(1,0,0,1,-420,-998)"></path><path id="SvgjsPath1045" d="M456.67 1047.64C456.17 1047.64 455.83000000000004 1047.3100000000002 455.83000000000004 1046.8200000000002C455.83000000000004 1046.3300000000002 456.17 1046.0000000000002 456.67 1046.0000000000002L458.25 1046.0000000000002C458.75 1046.0000000000002 459.08 1046.3300000000002 459.08 1046.8200000000002C459.08 1047.3100000000002 458.66999999999996 1047.64 458.25 1047.64ZM453.42 1047.64C453.92 1047.64 454.25 1047.3100000000002 454.25 1046.8200000000002C454.25 1046.3300000000002 453.92 1046.0000000000002 453.42 1046.0000000000002L451.83000000000004 1046.0000000000002C451.33000000000004 1046.0000000000002 451.00000000000006 1046.3300000000002 451.00000000000006 1046.8200000000002C451.00000000000006 1047.3100000000002 451.33000000000004 1047.64 451.83000000000004 1047.64Z " fill="#000000" fill-opacity="1" transform="matrix(1,0,0,1,-420,-998)"></path><path id="SvgjsPath1046" d="M424.6 1046.26C424.85 1046.26 425.1 1046.18 425.35 1045.93C425.6 1045.52 425.51000000000005 1045.03 425.1 1044.79C424.68 1044.54 424.43 1044.29 424.18 1043.8899999999999C423.93 1043.4799999999998 423.43 1043.3899999999999 423.01 1043.6399999999999C422.59999999999997 1043.8899999999999 422.51 1044.3799999999999 422.76 1044.79C423.09999999999997 1045.36 423.59999999999997 1045.77 424.09999999999997 1046.09C424.26 1046.1799999999998 424.42999999999995 1046.26 424.59999999999997 1046.26ZM444.76 1032.68C444.84999999999997 1032.68 445.01 1032.68 445.09999999999997 1032.52C445.51 1032.27 445.67999999999995 1031.78 445.42999999999995 1031.37C445.09999999999997 1030.8799999999999 444.67999999999995 1030.3899999999999 444.17999999999995 1029.9799999999998C443.84999999999997 1029.7399999999998 443.25999999999993 1029.8199999999997 443.00999999999993 1030.1399999999999C442.75999999999993 1030.4699999999998 442.8499999999999 1031.04 443.17999999999995 1031.29C443.50999999999993 1031.62 443.75999999999993 1031.94 444.00999999999993 1032.27C444.17999999999995 1032.52 444.50999999999993 1032.68 444.75999999999993 1032.68ZM444.43 1037.18C444.68 1037.18 444.93 1037.02 445.01 1036.8500000000001C445.43 1036.2800000000002 445.68 1035.71 445.84999999999997 1035.13C446.01 1034.73 445.67999999999995 1034.23 445.26 1034.15C444.84999999999997 1033.99 444.34999999999997 1034.3200000000002 444.26 1034.73C444.18 1035.13 444.01 1035.54 443.76 1035.8700000000001C443.51 1036.2 443.59999999999997 1036.7700000000002 443.93 1037.0200000000002C444.1 1037.1000000000001 444.26 1037.1800000000003 444.43 1037.1800000000003ZM422.85 1042.17C423.26000000000005 1042.17 423.6 1041.92 423.68 1041.6000000000001C423.68 1041.19 423.85 1040.7800000000002 424.1 1040.45C424.35 1040.04 424.26000000000005 1039.55 423.85 1039.31C423.43 1039.06 422.93 1039.1399999999999 422.68 1039.55C422.35 1040.04 422.1 1040.61 422.01 1041.27C421.93 1041.68 422.26 1042.09 422.68 1042.17C422.76 1042.17 422.76 1042.17 422.85 1042.17ZM425.93 1038.98C425.93 1038.98 426.01 1038.9 426.1 1038.9C426.35 1038.8100000000002 426.68 1038.8100000000002 426.93 1038.8100000000002L427.51 1038.8100000000002C428.01 1038.8100000000002 428.34999999999997 1038.4900000000002 428.34999999999997 1038.0000000000002C428.34999999999997 1037.5100000000002 428.01 1037.1800000000003 427.51 1037.1800000000003L426.93 1037.1800000000003C426.51 1037.1800000000003 426.1 1037.2600000000002 425.68 1037.3400000000004C425.26 1037.4200000000003 425.01 1037.9100000000003 425.1 1038.3200000000004C425.18 1038.7300000000005 425.6 1038.9800000000005 425.93 1038.9800000000005ZM441.1 1038.81C441.35 1038.81 441.68 1038.81 442.01000000000005 1038.73C442.43000000000006 1038.65 442.76000000000005 1038.16 442.68000000000006 1037.75C442.6000000000001 1037.34 442.1000000000001 1037.02 441.68000000000006 1037.1C441.51000000000005 1037.1799999999998 441.26000000000005 1037.1799999999998 441.1000000000001 1037.1799999999998L440.2600000000001 1037.1799999999998C439.7600000000001 1037.1799999999998 439.4300000000001 1037.5099999999998 439.4300000000001 1037.9999999999998C439.4300000000001 1038.4899999999998 439.7600000000001 1038.8099999999997 440.2600000000001 1038.8099999999997ZM440.68 1030.64C441.18 1030.64 441.51 1030.3100000000002 441.51 1029.8200000000002C441.51 1029.3300000000002 441.18 1029.0000000000002 440.68 1029.0000000000002L439.1 1029.0000000000002C438.6 1029.0000000000002 438.26000000000005 1029.3300000000002 438.26000000000005 1029.8200000000002C438.26000000000005 1030.3100000000002 438.6 1030.64 439.1 1030.64ZM443.6 1046.99C444.01000000000005 1046.99 444.43 1046.67 444.43 1046.18C444.43 1045.69 444.1 1045.3600000000001 443.6 1045.3600000000001L442.01000000000005 1045.3600000000001C441.51000000000005 1045.3600000000001 441.18000000000006 1045.69 441.18000000000006 1046.18C441.18000000000006 1046.67 441.51000000000005 1046.99 442.01000000000005 1046.99ZM429.26 1046.99C429.68 1046.99 430.01 1046.67 430.01 1046.18C430.01 1045.69 429.68 1045.3600000000001 429.18 1045.3600000000001L427.6 1045.3600000000001C427.1 1045.3600000000001 426.76000000000005 1045.69 426.76000000000005 1046.18C426.76000000000005 1046.67 427.1 1046.99 427.6 1046.99ZM438.76 1046.99C439.26 1046.99 439.59999999999997 1046.67 439.59999999999997 1046.18C439.59999999999997 1045.69 439.26 1045.3600000000001 438.76 1045.3600000000001L437.18 1045.3600000000001C436.68 1045.3600000000001 436.35 1045.69 436.35 1046.18C436.35 1046.67 436.68 1046.99 437.18 1046.99ZM434.01 1046.99C434.43 1046.99 434.84999999999997 1046.67 434.84999999999997 1046.18C434.84999999999997 1045.69 434.51 1045.3600000000001 434.01 1045.3600000000001L432.43 1045.3600000000001C431.93 1045.3600000000001 431.6 1045.69 431.6 1046.18C431.6 1046.67 431.93 1046.99 432.43 1046.99ZM448.35 1046.99C448.85 1046.99 449.18 1046.67 449.18 1046.18C449.18 1045.69 448.85 1045.3600000000001 448.35 1045.3600000000001L446.76000000000005 1045.3600000000001C446.26000000000005 1045.3600000000001 445.93000000000006 1045.69 445.93000000000006 1046.18C445.93000000000006 1046.67 446.26000000000005 1046.99 446.76000000000005 1046.99ZM437.01 1038.81C437.51 1038.81 437.84999999999997 1038.49 437.84999999999997 1038C437.84999999999997 1037.51 437.51 1037.18 437.01 1037.18L435.43 1037.18C434.93 1037.18 434.6 1037.51 434.6 1038C434.6 1038.49 434.93 1038.81 435.43 1038.81ZM432.26 1038.81C432.68 1038.81 433.09999999999997 1038.49 433.09999999999997 1038C433.09999999999997 1037.51 432.76 1037.18 432.26 1037.18L430.68 1037.18C430.18 1037.18 429.85 1037.51 429.85 1038C429.85 1038.49 430.18 1038.81 430.68 1038.81ZM434.35 1030.64C433.85 1030.64 433.51000000000005 1030.3100000000002 433.51000000000005 1029.8200000000002C433.51000000000005 1029.3300000000002 433.85 1029.0000000000002 434.35 1029.0000000000002L435.93 1029.0000000000002C436.43 1029.0000000000002 436.76 1029.3300000000002 436.76 1029.8200000000002C436.76 1030.3100000000002 436.43 1030.64 435.93 1030.64Z " fill="#000000" fill-opacity="1" transform="matrix(1,0,0,1,-420,-998)"></path><path id="SvgjsPath1047" d="M430.67 1030.64L429.83000000000004 1030.64C429.33000000000004 1030.64 429.00000000000006 1030.3100000000002 429.00000000000006 1029.8200000000002C429.00000000000006 1029.3300000000002 429.33000000000004 1029.0000000000002 429.83000000000004 1029.0000000000002L430.67 1029.0000000000002C431.17 1029.0000000000002 431.5 1029.3300000000002 431.5 1029.8200000000002C431.5 1030.3100000000002 431.17 1030.64 430.67 1030.64Z " fill="#000000" fill-opacity="1" transform="matrix(1,0,0,1,-420,-998)"></path></svg>