<?xml version="1.0" encoding="utf-8"?>
<!-- Generator: Adobe Illustrator 19.0.0, SVG Export Plug-In . SVG Version: 6.00 Build 0)  -->
<svg version="1.0" id="Layer_1" xmlns="http://www.w3.org/2000/svg" xmlns:xlink="http://www.w3.org/1999/xlink" x="0px" y="0px"
	 viewBox="0 0 92 89" style="enable-background:new 0 0 92 89;" xml:space="preserve">
<style type="text/css">
	.st0{clip-path:url(#SVGID_2_);}
	.st1{clip-path:url(#SVGID_4_);fill:#007FFF;}
	.st2{clip-path:url(#SVGID_6_);}
	.st3{clip-path:url(#SVGID_8_);fill:none;stroke:#F1F6FB;stroke-width:16;stroke-miterlimit:10;}
	.st4{clip-path:url(#SVGID_10_);}
	.st5{clip-path:url(#SVGID_12_);fill:#FFFFFF;}
</style>
<g>
	<defs>
		<path id="SVGID_1_" d="M69.5,70.5c-0.1,0.1-0.2,0.4-0.1,0.9c0.3,1.2,1.6,2.8,4.5,4.6l3.7,2.3l-4.2,1.3C51.3,86.2,29,83.2,16.4,70
			C2.1,55.2,2.7,31.4,17.8,16.9C32.9,2.3,56.7,2.5,71,17.3S84.6,55.9,69.5,70.5z M72,77.9c-0.5,0.2-1.1,0.3-1.6,0.5
			c0.4,0.3,0.9,0.7,1.4,1L72,77.9z M70.8,76.1c0.4,0.3,0.8,0.6,1.3,1l0.2-1.4C71.8,75.9,71.3,76,70.8,76.1z"/>
	</defs>
	<clipPath id="SVGID_2_">
		<use xlink:href="#SVGID_1_"  style="overflow:visible;"/>
	</clipPath>
	<g class="st0">
		<defs>
			<rect id="SVGID_3_" x="-148.8" y="-2399" width="1440" height="3117"/>
		</defs>
		<clipPath id="SVGID_4_">
			<use xlink:href="#SVGID_3_"  style="overflow:visible;"/>
		</clipPath>
		<rect x="6" y="2.1" transform="matrix(0.7193 -0.6947 0.6947 0.7193 -19.5128 45.8344)" class="st1" width="81.9" height="90"/>
	</g>
</g>
<g>
	<defs>
		<path id="SVGID_5_" d="M68.2,69c-0.7,0.6-2.6,4,4.7,8.6c-19.8,6-42.2,4.4-55.1-9c-13.5-14-12.9-36.5,1.4-50.3S56,4.7,69.5,18.7
			C83.1,32.7,82.4,55.2,68.2,69z M45.5-32.1l-77.6,75l80.6,83.4l77.6-75L45.5-32.1z"/>
	</defs>
	<clipPath id="SVGID_6_">
		<use xlink:href="#SVGID_5_"  style="overflow:visible;"/>
	</clipPath>
	<g class="st2">
		<defs>
			<rect id="SVGID_7_" x="-148.8" y="-2399" width="1440" height="3117"/>
		</defs>
		<clipPath id="SVGID_8_">
			<use xlink:href="#SVGID_7_"  style="overflow:visible;"/>
		</clipPath>
		<path class="st3" d="M68.2,69c-0.7,0.6-2.6,4,4.7,8.6c-19.8,6-42.2,4.4-55.1-9c-13.5-14-12.9-36.5,1.4-50.3S56,4.7,69.5,18.7
			S82.4,55.2,68.2,69z"/>
	</g>
</g>
<g>
	<defs>
		<path id="SVGID_9_" d="M54.4,40.5c-3.8-1.1-3.9-0.7-2.2-11c0.6-4-6.1,15.1-6.1,19.2c0,4.5,3.8,8.2,8.4,8.2c4.6,0,8.4-3.7,8.4-8.2
			C62.8,44.2,58.3,41.6,54.4,40.5z M35.1,41.9c-3.8-1.1-3.9-0.7-2.2-11c0.6-4-6.1,15.1-6.1,19.2c0,4.5,3.8,8.2,8.4,8.2
			c4.6,0,8.4-3.7,8.4-8.2C43.5,45.6,38.9,43,35.1,41.9z"/>
	</defs>
	<clipPath id="SVGID_10_">
		<use xlink:href="#SVGID_9_"  style="overflow:visible;"/>
	</clipPath>
	<g class="st4">
		<defs>
			<rect id="SVGID_11_" x="-148.8" y="-2399" width="1440" height="3117"/>
		</defs>
		<clipPath id="SVGID_12_">
			<use xlink:href="#SVGID_11_"  style="overflow:visible;"/>
		</clipPath>
		<rect x="21.7" y="24" class="st5" width="46.1" height="39.4"/>
	</g>
</g>
</svg>
