
<svg width="85px" height="113px" viewBox="96 109 85 113" version="1.1" xmlns="http://www.w3.org/2000/svg" xmlns:xlink="http://www.w3.org/1999/xlink">
    <!-- Generator: Sketch 41 (35326) - http://www.bohemiancoding.com/sketch -->
    <desc>Created with Sketch.</desc>
    <defs></defs>
    <g id="Page-1" stroke="none" stroke-width="1" fill="none" fill-rule="evenodd" transform="translate(97.000000, 110.000000)">
        <path d="M41.8564645,111.622417 C81.7034323,93.2106242 83.1995613,69.7235654 83.6191742,51.3997453 C83.8301419,42.1959806 83.6191742,14.5753855 83.6191742,14.5753855 C56.4159484,8.82191834 41.8564645,-0.000116262976 41.8564645,-0.000116262976 C41.8564645,-0.000116262976 27.2969806,8.82269343 0.0937548387,14.5761606 C0.0937548387,14.5761606 -0.117212903,42.1967557 0.0937548387,51.4005204 C0.513367742,69.7239529 2.00949677,93.2106242 41.8564645,111.622417" id="Fill-1" fill="#007FFF"></path>
        <path d="M41.8564645,24.9457716 C57.0922065,24.9457716 69.4433032,37.3111142 69.4433032,52.5644291 C69.4433032,67.8177439 57.0922065,80.1830865 41.8564645,80.1830865 C26.6207226,80.1830865 14.2696258,67.8177439 14.2696258,52.5644291 C14.2696258,37.3111142 26.6207226,24.9457716 41.8564645,24.9457716" id="Fill-4" fill="#3398FF"></path>
        <path d="M41.8564645,30.3000304 C48.3635613,30.3000304 53.6381419,35.5810824 53.6381419,42.0952969 C53.6381419,48.609899 48.3635613,53.8905633 41.8564645,53.8905633 C35.3493677,53.8905633 30.0747871,48.609899 30.0747871,42.0952969 C30.0747871,35.5810824 35.3493677,30.3000304 41.8564645,30.3000304" id="Fill-6" fill="#FFDD09"></path>
        <path d="M41.8564645,58.3530076 C32.6981419,58.3530076 24.5094968,62.102101 18.9759484,67.9985716 C23.9327226,75.3491045 32.3311742,80.183319 41.8564645,80.183319 C51.382529,80.183319 59.7805935,75.3498796 64.7369806,67.9989592 C59.2034323,62.102101 51.0147871,58.3530076 41.8564645,58.3530076" id="Fill-8" fill="#FFDD09"></path>
        <path d="M83.6191742,51.3997453 C83.8301419,42.1959806 83.6191742,14.5753855 83.6191742,14.5753855 C56.4159484,8.82191834 41.8564645,-0.000116262976 41.8564645,-0.000116262976 C41.8564645,-0.000116262976 42,93 41.8564645,111.622417 C81.7034323,93.2106242 83.1995613,69.7235654 83.6191742,51.3997453 Z" id="Fill-1-Copy" fill="#000000" opacity="0.100000001"></path>
    </g>
</svg>
