<svg id="SvgjsSvg1009" xmlns="http://www.w3.org/2000/svg" version="1.1" xmlns:xlink="http://www.w3.org/1999/xlink" xmlns:svgjs="http://svgjs.com/svgjs" width="51.5" height="75.5" viewBox="0 0 51.5 75.5"><title>Combined Shape</title><desc>Created with Avocode.</desc><defs id="SvgjsDefs1010"></defs><path id="SvgjsPath1011" d="M821.31 808.67C823.89 808.67 826 810.77 826 813.36C826 815.63 824.38 817.53 822.24 817.96L822.24 831.26C822.24 831.77 821.82 832.18 821.3100000000001 832.18L780.9300000000001 832.18C780.6200000000001 832.18 780.33 832.03 780.1500000000001 831.77C779.9800000000001 831.51 779.95 831.18 780.08 830.89L782.9100000000001 824.29C783.8600000000001 822.06 786.5100000000001 820.31 788.94 820.31L812.9000000000001 820.31L812.9000000000001 814.29L793.0200000000001 814.29L793.0200000000001 816.15L810.1200000000001 816.15C810.6300000000001 816.15 811.0500000000001 816.56 811.0500000000001 817.0699999999999C811.0500000000001 817.5899999999999 810.6300000000001 817.9999999999999 810.1200000000001 817.9999999999999L792.0900000000001 817.9999999999999C791.5800000000002 817.9999999999999 791.1600000000002 817.5899999999999 791.1600000000002 817.0699999999999L791.1600000000002 813.3599999999999C791.1600000000002 812.8499999999999 791.5800000000002 812.43 792.0900000000001 812.43L812.9000000000001 812.43L812.9000000000001 800.7299999999999L809.2900000000001 798.68C808.84 798.43 808.6800000000001 797.8599999999999 808.94 797.42C809.19 796.9699999999999 809.7600000000001 796.81 810.2 797.0699999999999L814.2900000000001 799.3799999999999C814.58 799.5499999999998 814.7600000000001 799.8599999999999 814.7600000000001 800.1899999999998L814.7600000000001 820.3099999999998L817.5400000000001 820.3099999999998C818.0600000000001 820.3099999999998 818.47 820.7299999999998 818.47 821.2399999999998C818.47 821.7499999999998 818.0600000000001 822.1699999999997 817.5400000000001 822.1699999999997L788.94 822.1699999999997C787.2600000000001 822.1699999999997 785.2800000000001 823.4699999999997 784.61 825.0199999999998L782.34 830.3299999999997L820.38 830.3299999999997L820.38 817.9599999999997C818.24 817.5299999999997 816.62 815.6299999999997 816.62 813.3599999999997C816.62 810.7699999999996 818.72 808.6699999999996 821.3100000000001 808.6699999999996ZM792.09 805.03C791.58 805.03 791.1600000000001 804.61 791.1600000000001 804.1C791.1600000000001 803.59 791.58 803.1700000000001 792.09 803.1700000000001L792.65 803.1700000000001L792.65 783.58C792.65 783.07 793.06 782.6500000000001 793.5799999999999 782.6500000000001L795.1399999999999 782.6500000000001L795.1399999999999 774.9300000000001C795.1399999999999 774.4200000000001 795.5599999999998 774.0000000000001 796.0699999999998 774.0000000000001L803.5399999999998 774.0000000000001C804.0499999999998 774.0000000000001 804.4699999999998 774.4200000000001 804.4699999999998 774.9300000000001L804.4699999999998 782.6500000000001L806.0299999999997 782.6500000000001C806.5399999999997 782.6500000000001 806.9599999999997 783.07 806.9599999999997 783.58L806.9599999999997 788.33L809.7499999999997 788.33C809.9099999999996 788.33 810.0599999999996 788.37 810.1999999999997 788.45L818.5299999999997 793.19C820.6099999999998 794.3900000000001 822.2399999999998 797.21 822.2399999999998 799.6L822.2399999999998 805.88C822.2399999999998 806.4 821.8199999999998 806.81 821.3099999999998 806.81C820.7999999999998 806.81 820.3799999999999 806.4 820.3799999999999 805.88L820.3799999999999 799.6C820.3799999999999 797.87 819.1099999999999 795.6700000000001 817.5999999999999 794.8100000000001L809.4999999999999 790.19L806.9599999999999 790.19L806.9599999999999 803.1700000000001L807.5199999999999 803.1700000000001C808.0299999999999 803.1700000000001 808.4499999999998 803.59 808.4499999999998 804.1C808.4499999999998 804.61 808.0299999999999 805.03 807.5199999999999 805.03L806.3299999999998 805.03L806.3299999999998 809.1899999999999C806.3299999999998 809.7099999999999 805.9099999999999 810.1199999999999 805.3999999999999 810.1199999999999L801.6599999999999 810.1199999999999C801.1499999999999 810.1199999999999 800.7299999999999 809.7099999999999 800.7299999999999 809.1899999999999L800.7299999999999 805.03L798.8799999999999 805.03L798.8799999999999 809.1899999999999C798.8799999999999 809.7099999999999 798.4599999999999 810.1199999999999 797.9499999999999 810.1199999999999L794.2099999999999 810.1199999999999C793.6999999999999 810.1199999999999 793.28 809.7099999999999 793.28 809.1899999999999L793.28 805.03ZM794.51 784.51L794.51 803.17L805.1 803.17L805.1 784.51ZM797 775.86L797 782.65L802.61 782.65L802.61 775.86ZM797.02 808.27L797.02 805.03L795.14 805.03L795.14 808.27ZM804.47 808.27L804.47 805.03L802.59 805.03L802.59 808.27ZM821.31 816.2C822.8699999999999 816.2 824.14 814.9200000000001 824.14 813.36C824.14 811.8000000000001 822.87 810.53 821.31 810.53C819.7399999999999 810.53 818.4699999999999 811.8 818.4699999999999 813.36C818.4699999999999 814.92 819.7399999999999 816.2 821.31 816.2Z " fill="#007fff" fill-opacity="1" transform="matrix(1,0,0,1,-779,-774)"></path><path id="SvgjsPath1012" d="M780 849L830 849 " fill-opacity="0" fill="#ffffff" stroke-dasharray="0" stroke-linejoin="miter" stroke-linecap="square" stroke-opacity="1" stroke="#007fff" stroke-miterlimit="50" stroke-width="1" transform="matrix(1,0,0,1,-779,-774)"></path></svg>