<svg id="SvgjsSvg1000" xmlns="http://www.w3.org/2000/svg" version="1.1" xmlns:xlink="http://www.w3.org/1999/xlink" xmlns:svgjs="http://svgjs.com/svgjs" width="51" height="69.5" viewBox="0 0 51 69.5"><title>calculator</title><desc>Created with Avocode.</desc><defs id="SvgjsDefs1001"></defs><path id="SvgjsPath1007" d="M341.77 780C342.27 780 342.68 780.41 342.68 780.91L342.68 795.85C342.68 796.35 342.27 796.76 341.77 796.76L312.03999999999996 796.76C311.53999999999996 796.76 311.12999999999994 796.35 311.12999999999994 795.85C311.12999999999994 795.34 311.53999999999996 794.9300000000001 312.03999999999996 794.9300000000001L340.84999999999997 794.9300000000001L340.84999999999997 781.83L301.83 781.83L301.83 794.9300000000001L308.38 794.9300000000001C308.89 794.9300000000001 309.3 795.34 309.3 795.85C309.3 796.35 308.89 796.76 308.38 796.76L300.90999999999997 796.76C300.40999999999997 796.76 299.99999999999994 796.35 299.99999999999994 795.85L299.99999999999994 780.91C299.99999999999994 780.41 300.40999999999997 780 300.90999999999997 780ZM341.77 807.13C342.27 807.13 342.68 807.54 342.68 808.04L342.68 811.6999999999999C342.68 812.1999999999999 342.27 812.6099999999999 341.77 812.6099999999999C341.26 812.6099999999999 340.84999999999997 812.1999999999999 340.84999999999997 811.6999999999999L340.84999999999997 808.9499999999999L335.21 808.9499999999999L335.21 825.7199999999999L340.84999999999997 825.7199999999999L340.84999999999997 815.3499999999999C340.84999999999997 814.8499999999999 341.26 814.4399999999999 341.77 814.4399999999999C342.27 814.4399999999999 342.68 814.8499999999999 342.68 815.3499999999999L342.68 826.6299999999999C342.68 827.1399999999999 342.27 827.5499999999998 341.77 827.5499999999998L334.29999999999995 827.5499999999998C333.78999999999996 827.5499999999998 333.37999999999994 827.1399999999999 333.37999999999994 826.6299999999999L333.37999999999994 808.0399999999998C333.37999999999994 807.5399999999998 333.78999999999996 807.1299999999999 334.29999999999995 807.1299999999999ZM308.38 818.25C308.89 818.25 309.3 818.66 309.3 819.16L309.3 826.63C309.3 827.14 308.89 827.55 308.38 827.55L300.90999999999997 827.55C300.40999999999997 827.55 299.99999999999994 827.14 299.99999999999994 826.63L299.99999999999994 819.16C299.99999999999994 818.66 300.40999999999997 818.25 300.90999999999997 818.25ZM319.51 818.25C320.02 818.25 320.43 818.66 320.43 819.16L320.43 826.63C320.43 827.14 320.02 827.55 319.51 827.55L312.03999999999996 827.55C311.53999999999996 827.55 311.12999999999994 827.14 311.12999999999994 826.63L311.12999999999994 819.16C311.12999999999994 818.66 311.53999999999996 818.25 312.03999999999996 818.25ZM330.64 818.25C331.15 818.25 331.55 818.66 331.55 819.16L331.55 826.63C331.55 827.14 331.15000000000003 827.55 330.64 827.55L323.16999999999996 827.55C322.66999999999996 827.55 322.25999999999993 827.14 322.25999999999993 826.63L322.25999999999993 819.16C322.25999999999993 818.66 322.66999999999996 818.25 323.16999999999996 818.25ZM308.38 807.13C308.89 807.13 309.3 807.54 309.3 808.04L309.3 815.51C309.3 816.01 308.89 816.42 308.38 816.42L300.90999999999997 816.42C300.40999999999997 816.42 299.99999999999994 816.01 299.99999999999994 815.51L299.99999999999994 808.04C299.99999999999994 807.54 300.40999999999997 807.13 300.90999999999997 807.13ZM319.51 807.13C320.02 807.13 320.43 807.54 320.43 808.04L320.43 815.51C320.43 816.01 320.02 816.42 319.51 816.42L312.03999999999996 816.42C311.53999999999996 816.42 311.12999999999994 816.01 311.12999999999994 815.51L311.12999999999994 808.04C311.12999999999994 807.54 311.53999999999996 807.13 312.03999999999996 807.13ZM330.64 807.13C331.15 807.13 331.55 807.54 331.55 808.04L331.55 815.51C331.55 816.01 331.15000000000003 816.42 330.64 816.42L323.16999999999996 816.42C322.66999999999996 816.42 322.25999999999993 816.01 322.25999999999993 815.51L322.25999999999993 808.04C322.25999999999993 807.54 322.66999999999996 807.13 323.16999999999996 807.13ZM341.77 799.81C342.27 799.81 342.68 800.2199999999999 342.68 800.7299999999999L342.68 804.3799999999999C342.68 804.8899999999999 342.27 805.2999999999998 341.77 805.2999999999998L334.29999999999995 805.2999999999998C333.78999999999996 805.2999999999998 333.37999999999994 804.8899999999999 333.37999999999994 804.3799999999999L333.37999999999994 800.7299999999999C333.37999999999994 800.2199999999999 333.78999999999996 799.81 334.29999999999995 799.81ZM330.64 799.81C331.15 799.81 331.55 800.2199999999999 331.55 800.7299999999999L331.55 804.3799999999999C331.55 804.8899999999999 331.15000000000003 805.2999999999998 330.64 805.2999999999998L323.16999999999996 805.2999999999998C322.66999999999996 805.2999999999998 322.25999999999993 804.8899999999999 322.25999999999993 804.3799999999999L322.25999999999993 800.7299999999999C322.25999999999993 800.2199999999999 322.66999999999996 799.81 323.16999999999996 799.81ZM329.73 825.72L329.73 820.08L324.09000000000003 820.08L324.09000000000003 825.72ZM329.73 814.59L329.73 808.95L324.09000000000003 808.95L324.09000000000003 814.59ZM318.6 814.59L318.6 808.95L312.96000000000004 808.95L312.96000000000004 814.59ZM307.47 814.59L307.47 808.95L301.83000000000004 808.95L301.83000000000004 814.59ZM318.6 825.72L318.6 820.08L312.96000000000004 820.08L312.96000000000004 825.72ZM307.47 825.72L307.47 820.08L301.83000000000004 820.08L301.83000000000004 825.72ZM340.85 803.47L340.85 801.64L335.21000000000004 801.64L335.21000000000004 803.47ZM329.73 803.47L329.73 801.64L324.09000000000003 801.64L324.09000000000003 803.47ZM334.45 785.49C333.95 785.49 333.53999999999996 785.08 333.53999999999996 784.57C333.53999999999996 784.07 333.95 783.6600000000001 334.45 783.6600000000001L338.11 783.6600000000001C338.61 783.6600000000001 339.02000000000004 784.07 339.02000000000004 784.57C339.02000000000004 785.08 338.61 785.49 338.11 785.49ZM334.45 792.8C333.95 792.8 333.53999999999996 792.39 333.53999999999996 791.89C333.53999999999996 791.38 333.95 790.97 334.45 790.97L338.11 790.97C338.61 790.97 339.02000000000004 791.38 339.02000000000004 791.89C339.02000000000004 792.39 338.61 792.8 338.11 792.8ZM334.45 790.36C334.96 790.36 335.37 789.95 335.37 789.45L335.37 787.01C335.37 786.51 334.96 786.1 334.45 786.1C333.95 786.1 333.53999999999996 786.51 333.53999999999996 787.01L333.53999999999996 789.45C333.53999999999996 789.95 333.95 790.36 334.45 790.36Z " fill="#007fff" fill-opacity="1" transform="matrix(1,0,0,1,-299.5,-780)"></path><path id="SvgjsPath1008" d="M300 849L350 849 " fill-opacity="0" fill="#ffffff" stroke-dasharray="0" stroke-linejoin="miter" stroke-linecap="square" stroke-opacity="1" stroke="#007fff" stroke-miterlimit="50" stroke-width="1" transform="matrix(1,0,0,1,-299.5,-780)"></path></svg>