<svg id="SvgjsSvg1000" xmlns="http://www.w3.org/2000/svg" version="1.1" xmlns:xlink="http://www.w3.org/1999/xlink" xmlns:svgjs="http://svgjs.com/svgjs" width="38" height="54" viewBox="0 0 38 54"><title>placeholder</title><desc>Created with Avocode.</desc><defs id="SvgjsDefs1001"><clipPath id="SvgjsClipPath1018"><path id="SvgjsPath1017" d="M178 938L178 884L216 884L216 938ZM197.26 935.58C197.34 935.5 204.39 925.08 209.04 915.5C209.37 914.83 209.62 914.25 209.95 913.67C211.85999999999999 909.92 213.19 907.17 213.19 902.67C213.19 893.5 205.72 886 196.59 886C193.11 886 189.79 887.08 186.97 889.08C186.64 889.33 186.55 889.83 186.8 890.25C187.05 890.58 187.55 890.67 187.96 890.42C190.45000000000002 888.5799999999999 193.44 887.67 196.59 887.67C204.81 887.67 211.53 894.42 211.53 902.67C211.53 906.75 210.28 909.25 208.46 912.92C208.21 913.5 207.88 914.0799999999999 207.54000000000002 914.75C203.81000000000003 922.42 198.50000000000003 930.75 196.59000000000003 933.58C194.68000000000004 930.75 189.37000000000003 922.5 185.64000000000004 914.75C185.31000000000003 914.17 185.06000000000003 913.5 184.73000000000005 912.92C182.90000000000003 909.25 181.66000000000005 906.75 181.66000000000005 902.67C181.66000000000005 899.8299999999999 182.49000000000007 897.0799999999999 183.98000000000005 894.5799999999999C184.23000000000005 894.2499999999999 184.15000000000003 893.67 183.73000000000005 893.4999999999999C183.40000000000003 893.2499999999999 182.90000000000003 893.3299999999999 182.65000000000003 893.7499999999999C180.91000000000003 896.4199999999998 180.00000000000003 899.4999999999999 180.00000000000003 902.6699999999998C180.00000000000003 907.1699999999998 181.33000000000004 909.9199999999998 183.24000000000004 913.6699999999998C183.48000000000005 914.2499999999999 183.82000000000005 914.8299999999998 184.15000000000003 915.4999999999999C188.79000000000002 925.0799999999999 195.85000000000002 935.4999999999999 195.93000000000004 935.6699999999998C196.09000000000003 935.8299999999998 196.34000000000003 935.9999999999999 196.59000000000003 935.9999999999999C196.84000000000003 935.9999999999999 197.09000000000003 935.8299999999999 197.26000000000002 935.5799999999999Z " fill="#ffffff"></path></clipPath></defs><path id="SvgjsPath1007" d="M196.27 887C188.56 887 183 894.58 183 902.83C183 907.83 184.49 910.5 186.4 915.33C190.38 925 196.27 935.33 196.27 935.33C196.27 935.33 202.16 925 206.15 915.33C208.14000000000001 910.5 209.55 907.83 209.55 902.83C209.55 894.58 203.99 887 196.27 887 " fill="#a3d6bb" fill-opacity="1" transform="matrix(1,0,0,1,-178,-884)"></path><path id="SvgjsPath1008" d="M197 887C204.72 887 210.27 894.58 210.27 902.83C210.27 907.83 208.78 910.5 206.87 915.33C202.89000000000001 925 197 935.33 197 935.33C197 935.33 204.05 925 208.7 915.33C211.01999999999998 910.5 212.76 907.83 212.76 902.83C212.76 894.58 206.13 887 197 887 " fill="#fd9808" fill-opacity="1" transform="matrix(1,0,0,1,-178,-884)"></path><path id="SvgjsPath1009" d="M199.66 887C207.37 887 212.93 894.58 212.93 902.83C212.93 907.83 211.44 910.5 209.53 915.33C205.55 925 198 935.33 198 935.33C198 935.33 206.71 925 211.36 915.33C213.68 910.5 215.42000000000002 907.83 215.42000000000002 902.83C215.42000000000002 894.58 208.79000000000002 887 199.66000000000003 887 " fill="#ffdd09" fill-opacity="1" transform="matrix(1,0,0,1,-178,-884)"></path><path id="SvgjsPath1010" d="M183.49 902.83C183.49 894.58 189.05 887 196.76000000000002 887C187.64000000000001 887 181.00000000000003 894.58 181.00000000000003 902.83C181.00000000000003 907.83 182.74000000000004 910.5 185.07000000000002 915.33C189.71 925 196.76000000000002 935.33 196.76000000000002 935.33C196.76000000000002 935.33 190.87000000000003 925 186.89000000000001 915.33C184.98000000000002 910.5 183.49 907.83 183.49 902.83 " fill="#ffffff" fill-opacity="1" transform="matrix(1,0,0,1,-178,-884)"></path><path id="SvgjsPath1011" d="M203.93 902.5C203.93 898.33 200.61 895 196.47 895C192.32 895 189 898.33 189 902.5C189 906.67 192.32 910 196.47 910C200.60999999999999 910 203.93 906.67 203.93 902.5 " fill="#f5a623" fill-opacity="1" transform="matrix(1,0,0,1,-178,-884)"></path><path id="SvgjsPath1012" d="M201.44 902.5C201.44 898.33 198.13 895 193.98 895C191.73999999999998 895 189 898.33 189 902.5C189 906.67 192.48 910 193.98 910C198.13 910 201.44 906.67 201.44 902.5 " fill="#ffdd09" fill-opacity="1" transform="matrix(1,0,0,1,-178,-884)"></path><path id="SvgjsPath1013" d="M188 902.33C188 897.75 191.73 894 196.3 894C200.86 894 204.59 897.75 204.59 902.33C204.59 906.9200000000001 200.86 910.6700000000001 196.3 910.6700000000001C191.73000000000002 910.6700000000001 188 906.9200000000001 188 902.33ZM189.66 902.33C189.66 906 192.65 909 196.29999999999998 909C199.95 909 202.92999999999998 906 202.92999999999998 902.33C202.92999999999998 898.6700000000001 199.95 895.6700000000001 196.29999999999998 895.6700000000001C192.64999999999998 895.6700000000001 189.66 898.6700000000001 189.66 902.33Z " fill="#000000" fill-opacity="1" transform="matrix(1,0,0,1,-178,-884)"></path><path id="SvgjsPath1014" d="M192.83 903.83C192.33 903.83 192 903.5 192 903C192 900.25 194.24 898 196.98 898C197.48 898 197.81 898.33 197.81 898.83C197.81 899.33 197.48 899.6700000000001 196.98 899.6700000000001C195.14999999999998 899.6700000000001 193.66 901.1700000000001 193.66 903.0000000000001C193.66 903.5000000000001 193.32999999999998 903.8300000000002 192.82999999999998 903.8300000000002Z " fill="#000000" fill-opacity="1" transform="matrix(1,0,0,1,-178,-884)"></path><path id="SvgjsPath1015" d="M196.59 936C196.34 936 196.09 935.83 195.93 935.67C195.85 935.5 188.79000000000002 925.0799999999999 184.15 915.5C183.82 914.83 183.48000000000002 914.25 183.24 913.67C181.33 909.92 180 907.17 180 902.67C180 899.5 180.91 896.42 182.65 893.75C182.9 893.33 183.4 893.25 183.73000000000002 893.5C184.15 893.67 184.23000000000002 894.25 183.98000000000002 894.58C182.49 897.08 181.66000000000003 899.83 181.66000000000003 902.6700000000001C181.66000000000003 906.7500000000001 182.90000000000003 909.2500000000001 184.73000000000002 912.9200000000001C185.06000000000003 913.5000000000001 185.31000000000003 914.1700000000001 185.64000000000001 914.7500000000001C189.37 922.5000000000001 194.68 930.7500000000001 196.59 933.5800000000002C198.5 930.7500000000001 203.81 922.4200000000002 207.54 914.7500000000001C207.88 914.0800000000002 208.20999999999998 913.5000000000001 208.45999999999998 912.9200000000001C210.27999999999997 909.2500000000001 211.52999999999997 906.7500000000001 211.52999999999997 902.6700000000001C211.52999999999997 894.4200000000001 204.80999999999997 887.6700000000001 196.58999999999997 887.6700000000001C193.43999999999997 887.6700000000001 190.45 888.58 187.95999999999998 890.4200000000001C187.54999999999998 890.6700000000001 187.04999999999998 890.58 186.79999999999998 890.2500000000001C186.54999999999998 889.8300000000002 186.64 889.3300000000002 186.96999999999997 889.0800000000002C189.78999999999996 887.0800000000002 193.10999999999996 886.0000000000001 196.58999999999997 886.0000000000001C205.71999999999997 886.0000000000001 213.18999999999997 893.5000000000001 213.18999999999997 902.6700000000001C213.18999999999997 907.1700000000001 211.85999999999996 909.9200000000001 209.94999999999996 913.6700000000001C209.61999999999995 914.2500000000001 209.36999999999995 914.83 209.03999999999996 915.5000000000001C204.38999999999996 925.0800000000002 197.33999999999997 935.5000000000001 197.25999999999996 935.5800000000002C197.08999999999997 935.8300000000002 196.83999999999997 936.0000000000001 196.58999999999997 936.0000000000001Z " fill="#000000" fill-opacity="1" transform="matrix(1,0,0,1,-178,-884)"></path><path id="SvgjsPath1016" d="M196.59 936C196.34 936 196.09 935.83 195.93 935.67C195.85 935.5 188.79000000000002 925.0799999999999 184.15 915.5C183.82 914.83 183.48000000000002 914.25 183.24 913.67C181.33 909.92 180 907.17 180 902.67C180 899.5 180.91 896.42 182.65 893.75C182.9 893.33 183.4 893.25 183.73000000000002 893.5C184.15 893.67 184.23000000000002 894.25 183.98000000000002 894.58C182.49 897.08 181.66000000000003 899.83 181.66000000000003 902.6700000000001C181.66000000000003 906.7500000000001 182.90000000000003 909.2500000000001 184.73000000000002 912.9200000000001C185.06000000000003 913.5000000000001 185.31000000000003 914.1700000000001 185.64000000000001 914.7500000000001C189.37 922.5000000000001 194.68 930.7500000000001 196.59 933.5800000000002C198.5 930.7500000000001 203.81 922.4200000000002 207.54 914.7500000000001C207.88 914.0800000000002 208.20999999999998 913.5000000000001 208.45999999999998 912.9200000000001C210.27999999999997 909.2500000000001 211.52999999999997 906.7500000000001 211.52999999999997 902.6700000000001C211.52999999999997 894.4200000000001 204.80999999999997 887.6700000000001 196.58999999999997 887.6700000000001C193.43999999999997 887.6700000000001 190.45 888.58 187.95999999999998 890.4200000000001C187.54999999999998 890.6700000000001 187.04999999999998 890.58 186.79999999999998 890.2500000000001C186.54999999999998 889.8300000000002 186.64 889.3300000000002 186.96999999999997 889.0800000000002C189.78999999999996 887.0800000000002 193.10999999999996 886.0000000000001 196.58999999999997 886.0000000000001C205.71999999999997 886.0000000000001 213.18999999999997 893.5000000000001 213.18999999999997 902.6700000000001C213.18999999999997 907.1700000000001 211.85999999999996 909.9200000000001 209.94999999999996 913.6700000000001C209.61999999999995 914.2500000000001 209.36999999999995 914.83 209.03999999999996 915.5000000000001C204.38999999999996 925.0800000000002 197.33999999999997 935.5000000000001 197.25999999999996 935.5800000000002C197.08999999999997 935.8300000000002 196.83999999999997 936.0000000000001 196.58999999999997 936.0000000000001Z " fill-opacity="0" fill="#ffffff" stroke-dasharray="0" stroke-linejoin="miter" stroke-linecap="butt" stroke-opacity="1" stroke="#ffffff" stroke-miterlimit="50" stroke-width="4" clip-path="url(&quot;#SvgjsClipPath1018&quot;)" transform="matrix(1,0,0,1,-178,-884)"></path><path id="SvgjsPath1019" d="M185.66 891.83C185.66 891.33 185.32999999999998 891 184.82999999999998 891C184.32999999999998 891 183.99999999999997 891.33 183.99999999999997 891.83C183.99999999999997 892.33 184.32999999999998 892.6700000000001 184.82999999999998 892.6700000000001C185.32999999999998 892.6700000000001 185.66 892.2500000000001 185.66 891.83 " fill="#000000" fill-opacity="1" transform="matrix(1,0,0,1,-178,-884)"></path></svg>