<svg id="SvgjsSvg1083" xmlns="http://www.w3.org/2000/svg" version="1.1" xmlns:xlink="http://www.w3.org/1999/xlink" xmlns:svgjs="http://svgjs.com/svgjs" width="50" height="50" viewBox="0 0 50 50"><title>location</title><desc>Created with Avocode.</desc><defs id="SvgjsDefs1084"></defs><path id="SvgjsPath1085" d="M1118.83 909.67C1118.83 916.0799999999999 1114.1699999999998 921.3299999999999 1108.4199999999998 921.3299999999999C1102.6699999999998 921.3299999999999 1097.9999999999998 916.0799999999999 1097.9999999999998 909.67C1097.9999999999998 903.25 1102.6699999999998 898 1108.4199999999998 898C1114.1699999999998 898 1118.83 903.25 1118.83 909.67 " fill="#ffdd09" fill-opacity="1" transform="matrix(1,0,0,1,-1072,-872)"></path><path id="SvgjsPath1086" d="M1109.67 898C1109.42 898 1109.25 898 1109 898C1114.5 898.42 1118.83 903.42 1118.83 909.67C1118.83 915.92 1114.5 920.92 1109 921.3299999999999C1109.25 921.3299999999999 1109.42 921.3299999999999 1109.67 921.3299999999999C1116.0800000000002 921.3299999999999 1121.3300000000002 916.0799999999999 1121.3300000000002 909.67C1121.3300000000002 903.25 1116.0800000000002 898 1109.67 898 " fill="#fd9808" fill-opacity="1" transform="matrix(1,0,0,1,-1072,-872)"></path><path id="SvgjsPath1087" d="M1097.25 909.67C1097.25 903.25 1101.92 898 1107.58 898C1110.5 898 1113.08 897.5 1115 899.67L1115 873L1075 873L1075 918L1100.33 918C1098.4199999999998 915.92 1097.25 912.92 1097.25 909.67 " fill="#a3d6bb" fill-opacity="1" transform="matrix(1,0,0,1,-1072,-872)"></path><path id="SvgjsPath1088" d="M1109.42 898C1109.5 898 1109.5800000000002 898 1109.67 898C1112.92 898 1115.92 899.33 1118 901.5L1118 895.5L1109.25 887L1118 878.33L1118 873L1112.67 873L1089.67 896L1089.67 873L1083 873L1083 883L1073 883L1073 889.67L1083 889.67L1083 902.67L1081.75 903.92L1073 912.67L1073 918L1078.33 918L1103.9199999999998 892.42Z " fill="#ffdd09" fill-opacity="1" transform="matrix(1,0,0,1,-1072,-872)"></path><path id="SvgjsPath1089" d="M1115 873L1115 899.58C1115.92 900.08 1116.75 900.75 1117.5 901.5L1117.5 873Z " fill="#2d9f5e" fill-opacity="1" transform="matrix(1,0,0,1,-1072,-872)"></path><path id="SvgjsPath1090" d="M1117.5 878L1115 880.5L1115 873L1117.5 873Z " fill="#fd8e00" fill-opacity="1" transform="matrix(1,0,0,1,-1072,-872)"></path><path id="SvgjsPath1091" d="M1117.5 901.33L1115 899.6700000000001L1115 893.0000000000001L1117.5 894.6700000000001Z " fill="#fd8e00" fill-opacity="1" transform="matrix(1,0,0,1,-1072,-872)"></path><path id="SvgjsPath1092" d="M1073 918L1075.5 918L1075.5 873L1073 873Z " fill="#ffffff" fill-opacity="1" transform="matrix(1,0,0,1,-1072,-872)"></path><path id="SvgjsPath1093" d="M1101.33 918.67L1072.83 918.67C1072.33 918.67 1072 918.3299999999999 1072 917.8299999999999L1072 901.9999999999999C1072 901.4999999999999 1072.33 901.1699999999998 1072.83 901.1699999999998C1073.33 901.1699999999998 1073.6699999999998 901.4999999999999 1073.6699999999998 901.9999999999999L1073.6699999999998 916.9999999999999L1099.4999999999998 916.9999999999999C1097.9199999999998 914.8299999999999 1096.9999999999998 912.2499999999999 1096.9999999999998 909.4999999999999C1096.9999999999998 902.5799999999999 1102.5799999999997 896.9999999999999 1109.4999999999998 896.9999999999999C1112.2499999999998 896.9999999999999 1114.8299999999997 897.9199999999998 1116.9999999999998 899.4999999999999L1116.9999999999998 873.6699999999998L1073.6699999999998 873.6699999999998L1073.6699999999998 895.3299999999998C1073.6699999999998 895.8299999999998 1073.33 896.1699999999998 1072.83 896.1699999999998C1072.33 896.1699999999998 1072 895.8299999999998 1072 895.3299999999998L1072 872.8299999999998C1072 872.3299999999998 1072.33 871.9999999999998 1072.83 871.9999999999998L1117.83 871.9999999999998C1118.33 871.9999999999998 1118.6699999999998 872.3299999999998 1118.6699999999998 872.8299999999998L1118.6699999999998 901.3299999999998C1118.6699999999998 901.6699999999998 1118.4999999999998 901.9999999999998 1118.1699999999998 902.0799999999998C1117.83 902.2499999999998 1117.4999999999998 902.1699999999998 1117.2499999999998 901.9199999999998C1115.1699999999998 899.8299999999998 1112.4199999999998 898.6699999999998 1109.4999999999998 898.6699999999998C1103.4999999999998 898.6699999999998 1098.6699999999998 903.4999999999999 1098.6699999999998 909.4999999999999C1098.6699999999998 912.4199999999998 1099.83 915.1699999999998 1101.9199999999998 917.2499999999999C1102.1699999999998 917.4999999999999 1102.2499999999998 917.8299999999999 1102.08 918.1699999999998C1101.9199999999998 918.4999999999999 1101.6699999999998 918.6699999999998 1101.33 918.6699999999998Z " fill="#000000" fill-opacity="1" transform="matrix(1,0,0,1,-1072,-872)"></path><path id="SvgjsPath1094" d="M1073.67 898.83C1073.67 898.33 1073.3300000000002 898 1072.8300000000002 898C1072.3300000000002 898 1072.0000000000002 898.33 1072.0000000000002 898.83C1072.0000000000002 899.33 1072.3300000000002 899.6700000000001 1072.8300000000002 899.6700000000001C1073.3300000000002 899.6700000000001 1073.67 899.33 1073.67 898.83 " fill="#000000" fill-opacity="1" transform="matrix(1,0,0,1,-1072,-872)"></path><path id="SvgjsPath1095" d="M1118 908L1113 908L1113 906.33L1116.33 906.33L1116.33 903L1118 903Z " fill="#000000" fill-opacity="1" transform="matrix(1,0,0,1,-1072,-872)"></path><path id="SvgjsPath1096" d="M1102.67 915L1101 915L1101 910L1106 910L1106 911.67L1102.67 911.67Z " fill="#000000" fill-opacity="1" transform="matrix(1,0,0,1,-1072,-872)"></path><path id="SvgjsPath1097" d="M1102.79 908.67C1102.71 908.67 1102.6299999999999 908.67 1102.6299999999999 908.67C1102.2099999999998 908.5799999999999 1101.8799999999999 908.0799999999999 1102.04 907.67C1102.8799999999999 904.3299999999999 1105.8799999999999 902 1109.29 902C1112.3799999999999 902 1115.1299999999999 903.83 1116.21 906.67C1116.38 907.0799999999999 1116.21 907.5799999999999 1115.71 907.75C1115.29 907.92 1114.79 907.75 1114.63 907.25C1113.71 905.08 1111.63 903.67 1109.21 903.67C1106.54 903.67 1104.21 905.5 1103.54 908C1103.46 908.42 1103.1299999999999 908.67 1102.79 908.67Z " fill="#000000" fill-opacity="1" transform="matrix(1,0,0,1,-1072,-872)"></path><path id="SvgjsPath1098" d="M1109.27 917.5C1105.85 917.5 1102.85 915.17 1102.02 911.92C1101.93 911.5 1102.18 911 1102.6 910.92C1103.02 910.8299999999999 1103.52 911.0799999999999 1103.6 911.5C1104.27 914 1106.6 915.83 1109.27 915.83C1112.18 915.83 1114.68 913.6700000000001 1115.02 910.75C1115.1 910.33 1115.52 910 1115.93 910C1116.3500000000001 910.08 1116.68 910.5 1116.68 910.92C1116.27 914.67 1113.02 917.5 1109.27 917.5Z " fill="#000000" fill-opacity="1" transform="matrix(1,0,0,1,-1072,-872)"></path><path id="SvgjsPath1099" d="M1097 909.5C1097 902.58 1102.58 897 1109.5 897C1116.42 897 1122 902.58 1122 909.5C1122 916.42 1116.42 922 1109.5 922C1102.58 922 1097 916.42 1097 909.5ZM1098.67 909.5C1098.67 915.5 1103.5 920.33 1109.5 920.33C1115.5 920.33 1120.33 915.5 1120.33 909.5C1120.33 903.5 1115.5 898.67 1109.5 898.67C1103.5 898.67 1098.67 903.5 1098.67 909.5Z " fill="#000000" fill-opacity="1" transform="matrix(1,0,0,1,-1072,-872)"></path><path id="SvgjsPath1100" d="M1072.83 918.67C1072.33 918.67 1072 918.3299999999999 1072 917.8299999999999L1072 912.4999999999999C1072 912.2499999999999 1072.08 912.0799999999999 1072.25 911.9199999999998L1082 902.1699999999998L1082 890.3299999999998L1072.83 890.3299999999998C1072.33 890.3299999999998 1072 889.9999999999998 1072 889.4999999999998L1072 882.8299999999998C1072 882.3299999999998 1072.33 881.9999999999998 1072.83 881.9999999999998L1082 881.9999999999998L1082 872.8299999999998C1082 872.3299999999998 1082.33 871.9999999999998 1082.83 871.9999999999998L1089.5 871.9999999999998C1090 871.9999999999998 1090.33 872.3299999999998 1090.33 872.8299999999998L1090.33 893.8299999999998L1111.9199999999998 872.2499999999998C1112.08 872.0799999999998 1112.33 871.9999999999998 1112.4999999999998 871.9999999999998L1117.8299999999997 871.9999999999998C1118.3299999999997 871.9999999999998 1118.6699999999996 872.3299999999998 1118.6699999999996 872.8299999999998L1118.6699999999996 878.1699999999998C1118.6699999999996 878.4199999999998 1118.5799999999997 878.5799999999998 1118.4199999999996 878.7499999999999L1110.3299999999997 886.8299999999999L1118.4199999999996 894.7499999999999C1118.5799999999997 894.9199999999998 1118.6699999999996 895.0799999999999 1118.6699999999996 895.3299999999999L1118.6699999999996 901.3299999999999C1118.6699999999996 901.67 1118.4999999999995 901.9999999999999 1118.1699999999996 902.0799999999999C1117.8299999999997 902.17 1117.4999999999995 902.17 1117.2499999999995 901.92C1115.1699999999996 899.8299999999999 1112.4199999999996 898.67 1109.4999999999995 898.67C1109.4199999999996 898.67 1109.3299999999995 898.67 1109.2499999999995 898.67C1108.9999999999995 898.67 1108.8299999999995 898.5799999999999 1108.6699999999996 898.42L1103.7499999999995 893.42L1078.7499999999995 918.42C1078.5799999999995 918.5799999999999 1078.3299999999995 918.67 1078.1699999999996 918.67ZM1077.83 917L1103.1699999999998 891.67C1103.33 891.5 1103.4999999999998 891.42 1103.7499999999998 891.42C1103.9999999999998 891.42 1104.1699999999998 891.5 1104.3299999999997 891.67L1109.5799999999997 897C1112.2499999999998 897 1114.8299999999997 897.92 1116.9999999999998 899.5L1116.9999999999998 895.67L1108.4999999999998 887.42C1108.3299999999997 887.25 1108.2499999999998 887.0799999999999 1108.2499999999998 886.8299999999999C1108.2499999999998 886.5799999999999 1108.3299999999997 886.42 1108.4999999999998 886.2499999999999L1116.9999999999998 877.7499999999999L1116.9999999999998 873.6699999999998L1112.9199999999998 873.6699999999998L1090.08 896.4199999999998C1089.83 896.6699999999998 1089.5 896.7499999999999 1089.1699999999998 896.5799999999998C1088.83 896.4999999999998 1088.6699999999998 896.1699999999998 1088.6699999999998 895.8299999999998L1088.6699999999998 873.6699999999998L1083.6699999999998 873.6699999999998L1083.6699999999998 882.8299999999998C1083.6699999999998 883.3299999999998 1083.33 883.6699999999998 1082.83 883.6699999999998L1073.6699999999998 883.6699999999998L1073.6699999999998 888.6699999999998L1082.83 888.6699999999998C1083.33 888.6699999999998 1083.6699999999998 888.9999999999999 1083.6699999999998 889.4999999999999L1083.6699999999998 902.4999999999999C1083.6699999999998 902.7499999999999 1083.58 902.9199999999998 1083.4199999999998 903.0799999999999L1073.6699999999998 912.92L1073.6699999999998 917Z " fill="#000000" fill-opacity="1" transform="matrix(1,0,0,1,-1072,-872)"></path></svg>