<svg id="SvgjsSvg1065" xmlns="http://www.w3.org/2000/svg" version="1.1" xmlns:xlink="http://www.w3.org/1999/xlink" xmlns:svgjs="http://svgjs.com/svgjs" width="50" height="51" viewBox="0 0 50 51"><title>signs</title><desc>Created with Avocode.</desc><defs id="SvgjsDefs1066"></defs><path id="SvgjsPath1067" d="M897.5 1037L897.33 1042.83C897.33 1043.75 896.6700000000001 1044.5 895.83 1044.5C895 1044.5 894.33 1043.75 894.33 1042.83L894.1700000000001 1037C883.4200000000001 1037.25 875.0000000000001 1039.58 875.0000000000001 1042.42C875.0000000000001 1045.42 884.3300000000002 1047.8300000000002 895.8300000000002 1047.8300000000002C907.3300000000002 1047.8300000000002 916.6700000000002 1045.42 916.6700000000002 1042.42C916.6700000000002 1039.5800000000002 908.2500000000002 1037.25 897.5000000000002 1037 " fill="#a3d6bb" fill-opacity="1" transform="matrix(1,0,0,1,-871,-999)"></path><path id="SvgjsPath1068" d="M875.33 1042.42C875.33 1039.5800000000002 883.58 1037.25 894.25 1037L894.25 1037C881.75 1037.25 872 1039.58 872 1042.42C872 1045.42 882.83 1047.8300000000002 896.17 1047.8300000000002C884.67 1047.8300000000002 875.3299999999999 1045.42 875.3299999999999 1042.42 " fill="#ffffff" fill-opacity="1" transform="matrix(1,0,0,1,-871,-999)"></path><path id="SvgjsPath1069" d="M897.92 1037L897.92 1037C908.5799999999999 1037.25 916.8299999999999 1039.58 916.8299999999999 1042.42C916.8299999999999 1045.42 907.4999999999999 1047.8300000000002 895.9999999999999 1047.8300000000002C909.3299999999999 1047.8300000000002 920.1699999999998 1045.42 920.1699999999998 1042.42C920.1699999999998 1039.5800000000002 910.4199999999998 1037.25 897.9199999999998 1037 " fill="#2d9f5e" fill-opacity="1" transform="matrix(1,0,0,1,-871,-999)"></path><path id="SvgjsPath1070" d="M895.67 1020.33C895.25 1020.33 894.8299999999999 1020.25 894 1020L894 1023.67L897.33 1023.67L897.33 1020C896.5 1020.25 896.08 1020.33 895.6700000000001 1020.33 " fill="#ffdd09" fill-opacity="1" transform="matrix(1,0,0,1,-871,-999)"></path><path id="SvgjsPath1071" d="M893 1020L893 1023.67L894.67 1023.67L894.67 1020.25C894.17 1020.17 893.67 1020.08 893 1020 " fill="#ffffff" fill-opacity="1" transform="matrix(1,0,0,1,-871,-999)"></path><path id="SvgjsPath1072" d="M898 1020.25L898 1023.67L899.67 1023.67L899.67 1020C899 1020.08 898.5 1020.17 898 1020.25 " fill="#f5a623" fill-opacity="1" transform="matrix(1,0,0,1,-871,-999)"></path><path id="SvgjsPath1073" d="M894 1023L899 1023L898.25 1043C898.25 1043.92 897.42 1044.67 896.5 1044.67C895.58 1044.67 894.83 1043.92 894.75 1043Z " fill="#a3d6bb" fill-opacity="1" transform="matrix(1,0,0,1,-871,-999)"></path><path id="SvgjsPath1074" d="M904 1010C904 1004.5 900.67 1000 896.5 1000C892.33 1000 889 1004.5 889 1010C889 1015.5 892.33 1020 896.5 1020C900.67 1020 904 1015.5 904 1010 " fill="#ffd900" fill-opacity="1" transform="matrix(1,0,0,1,-871,-999)"></path><path id="SvgjsPath1075" d="M888.5 1010C888.5 1004.5 891.83 1000 896 1000C890.5 1000 886 1004.5 886 1010C886 1015.5 890.5 1020 896 1020C891.83 1020 888.5 1015.5 888.5 1010 " fill="#ffffff" fill-opacity="1" transform="matrix(1,0,0,1,-871,-999)"></path><path id="SvgjsPath1076" d="M896 1000C900.17 1000 903.5 1004.5 903.5 1010C903.5 1015.5 900.17 1020 896 1020C901.5 1020 906 1015.5 906 1010C906 1004.5 901.5 1000 896 1000 " fill="#f49d00" fill-opacity="1" transform="matrix(1,0,0,1,-871,-999)"></path><path id="SvgjsPath1077" d="M885 1009.83C885 1003.83 889.83 999 895.83 999C901.83 999 906.6700000000001 1003.83 906.6700000000001 1009.83C906.6700000000001 1015.83 901.83 1020.6700000000001 895.83 1020.6700000000001C889.83 1020.6700000000001 885 1015.83 885 1009.83ZM886.67 1009.83C886.67 1014.9200000000001 890.75 1019 895.8299999999999 1019C900.92 1019 904.9999999999999 1014.92 904.9999999999999 1009.83C904.9999999999999 1004.75 900.9199999999998 1000.6700000000001 895.8299999999999 1000.6700000000001C890.7499999999999 1000.6700000000001 886.67 1004.7500000000001 886.67 1009.83Z " fill="#000000" fill-opacity="1" transform="matrix(1,0,0,1,-871,-999)"></path><path id="SvgjsPath1078" d="M889.83 1010.33C889.33 1010.33 889 1010 889 1009.5C889 1005.33 892.33 1002 896.5 1002C897 1002 897.33 1002.33 897.33 1002.83C897.33 1003.33 897 1003.6700000000001 896.5 1003.6700000000001C893.25 1003.6700000000001 890.67 1006.2500000000001 890.67 1009.5000000000001C890.67 1010.0000000000001 890.3299999999999 1010.3300000000002 889.8299999999999 1010.3300000000002Z " fill="#000000" fill-opacity="1" transform="matrix(1,0,0,1,-871,-999)"></path><path id="SvgjsPath1079" d="M889.83 1010.33C889.33 1010.33 889 1010 889 1009.5C889 1005.33 892.33 1002 896.5 1002C897 1002 897.33 1002.33 897.33 1002.83C897.33 1003.33 897 1003.6700000000001 896.5 1003.6700000000001C893.25 1003.6700000000001 890.67 1006.2500000000001 890.67 1009.5000000000001C890.67 1010.0000000000001 890.3299999999999 1010.3300000000002 889.8299999999999 1010.3300000000002Z " fill="#000000" fill-opacity="1" transform="matrix(1,0,0,1,-871,-999)"></path><path id="SvgjsPath1080" d="M892.83 1024.37C892.33 1024.37 892 1024.03 892 1023.5299999999999L892 1019.8699999999999C892 1019.6199999999999 892.08 1019.3699999999999 892.25 1019.1999999999999C892.42 1019.03 892.67 1018.9499999999999 892.92 1019.03L893.5 1019.12C896 1019.45 896.33 1019.45 898.83 1019.12L899.4200000000001 1019.03C899.6700000000001 1019.03 899.9200000000001 1019.12 900.08 1019.1999999999999C900.25 1019.3699999999999 900.33 1019.6199999999999 900.33 1019.8699999999999L900.33 1023.5299999999999C900.33 1024.0299999999997 900 1024.37 899.5 1024.37ZM898.67 1022.7L898.67 1020.7800000000001C896.5 1021.0300000000001 895.8299999999999 1021.0300000000001 893.67 1020.7800000000001L893.67 1022.7Z " fill="#000000" fill-opacity="1" transform="matrix(1,0,0,1,-871,-999)"></path><path id="SvgjsPath1081" d="M893.75 1042.83L893 1022.8299999999999C893 1022.5799999999999 893.08 1022.42 893.25 1022.2499999999999C893.42 1022.0799999999999 893.58 1021.9999999999999 893.83 1021.9999999999999L898.83 1021.9999999999999C899.08 1021.9999999999999 899.25 1022.0799999999999 899.4200000000001 1022.2499999999999C899.58 1022.4199999999998 899.6700000000001 1022.6699999999998 899.6700000000001 1022.8299999999999L898.9200000000001 1042.83C898.83 1044.25 897.7500000000001 1045.33 896.33 1045.33C894.9200000000001 1045.33 893.83 1044.25 893.75 1042.83ZM895.42 1042.83C895.42 1043.33 895.8299999999999 1043.6699999999998 896.3299999999999 1043.6699999999998C896.8299999999999 1043.6699999999998 897.2499999999999 1043.2499999999998 897.2499999999999 1042.83L897.9999999999999 1023.67L894.6699999999998 1023.67Z " fill="#000000" fill-opacity="1" transform="matrix(1,0,0,1,-871,-999)"></path><path id="SvgjsPath1082" d="M871 1043.25C871 1038.67 885.5 1037.17 894 1037C894.42 1037 894.83 1037.33 894.83 1037.83L895.08 1043.6699999999998C895.08 1044.1699999999998 895.5 1044.4999999999998 896 1044.4999999999998C896.5 1044.4999999999998 896.92 1044.0799999999997 896.92 1043.6699999999998L897.17 1037.83C897.17 1037.4199999999998 897.5 1037 898 1037C906.5 1037.17 921 1038.67 921 1043.25C921 1047.83 906.08 1049.5 896 1049.5C885.92 1049.5 871 1047.83 871 1043.25ZM872.67 1043.25C872.67 1045.08 881.75 1047.83 896 1047.83C910.25 1047.83 919.33 1045.08 919.33 1043.25C919.33 1041.75 912.4200000000001 1039.08 898.75 1038.67L898.58 1043.67C898.5 1045.0800000000002 897.4200000000001 1046.17 896 1046.17C894.58 1046.17 893.5 1045.0800000000002 893.42 1043.67L893.25 1038.67C879.58 1039.0800000000002 872.67 1041.75 872.67 1043.25Z " fill="#000000" fill-opacity="1" transform="matrix(1,0,0,1,-871,-999)"></path></svg>